<?xml version="1.0" encoding="utf-8"?>
<!-- Generator: Adobe Illustrator 26.2.1, SVG Export Plug-In . SVG Version: 6.00 Build 0)  -->
<svg version="1.1" id="Layer_1" xmlns="http://www.w3.org/2000/svg" xmlns:xlink="http://www.w3.org/1999/xlink" x="0px" y="0px"
     viewBox="0 0 48 48" style="enable-background:new 0 0 48 48;" xml:space="preserve">
<style type="text/css">
	.st0{fill:url(#SVGID_1_);}
	.st1{fill:url(#SVGID_00000021088441130175115220000001900973498294205868_);}
</style>
    <linearGradient id="SVGID_1_" gradientUnits="userSpaceOnUse" x1="24" y1="48" x2="24" y2="-9.094947e-13">
	<stop  offset="0" style="stop-color:#EF8BD5"/>
        <stop  offset="1" style="stop-color:#F5BBE5"/>
</linearGradient>
    <path class="st0" d="M38,48H10C4.5,48,0,43.5,0,38V10C0,4.5,4.5,0,10,0h28c5.5,0,10,4.5,10,10v28C48,43.5,43.5,48,38,48z"/>
    <g>

		<linearGradient id="SVGID_00000040556912232314180950000009598157297982551190_" gradientUnits="userSpaceOnUse" x1="24" y1="6.3257" x2="24" y2="41.6743">
		<stop  offset="0" style="stop-color:#820095"/>
            <stop  offset="1" style="stop-color:#A2009F"/>
	</linearGradient>
        <path style="fill:url(#SVGID_00000040556912232314180950000009598157297982551190_);" d="M9.3,41.7c-0.8,0-1.6-0.3-2.1-0.8
		c-0.6-0.6-0.9-1.3-0.9-2.1V24c0-2.5,0.5-4.7,1.4-6.9c0.9-2.1,2.2-4,3.8-5.6c1.6-1.6,3.5-2.8,5.6-3.8c2.1-0.9,4.4-1.4,6.9-1.4
		s4.7,0.5,6.9,1.4s4,2.2,5.6,3.8c1.6,1.6,2.8,3.5,3.8,5.6c0.9,2.1,1.4,4.4,1.4,6.9l0,14.7c0,0.6-0.2,1.2-0.5,1.7
		c-0.6,0.8-1.4,1.3-2.3,1.3l-4,0c-0.8,0-1.6-0.3-2.1-0.8c-0.6-0.6-0.9-1.3-0.9-2.1l0-8.8c0-0.6,0.2-1.2,0.5-1.7
		c0.6-0.8,1.4-1.3,2.3-1.3h4v-3.1c0-4.1-1.4-7.6-4.3-10.4c-2.9-2.9-6.3-4.3-10.4-4.3s-7.6,1.4-10.4,4.3s-4.3,6.3-4.3,10.4V27l3.9,0
		c0.8,0,1.6,0.3,2.1,0.8c0.6,0.6,0.9,1.3,0.9,2.1l0,8.8c0,0.6-0.2,1.2-0.5,1.7c-0.6,0.8-1.4,1.3-2.3,1.3L9.3,41.7z M9.3,38.7h3.9
		l0,0l0,0v-8.8l0,0l0,0H9.3V38.7L9.3,38.7L9.3,38.7z M34.8,38.7h3.9l0,0l0,0v-8.8h-3.9l0,0l0,0V38.7L34.8,38.7L34.8,38.7z M9,38.7
		L9,38.7L9,38.7h4.3l0,0l0,0l0,0l0,0H9z M34.2,38.7L34.2,38.7L34.2,38.7L34.2,38.7L34.2,38.7h4.3l0,0l0,0H34.2z"/>
</g>
</svg>
