<?xml version="1.0" encoding="utf-8"?>
<!-- Generator: Adobe Illustrator 25.3.1, SVG Export Plug-In . SVG Version: 6.00 Build 0)  -->
<svg version="1.1" id="Layer_1" xmlns="http://www.w3.org/2000/svg" xmlns:xlink="http://www.w3.org/1999/xlink" x="0px" y="0px"
	 viewBox="0 0 96 93.6" style="enable-background:new 0 0 96 93.6;" xml:space="preserve">
<style type="text/css">
	.st0{fill:#75AEE6;}
	.st1{fill:#1A2733;}
	.st2{display:none;}
	.st3{display:inline;fill:#FFFFFF;}
	.st4{display:inline;opacity:0.15;}
	.st5{fill:#00C8FF;}
	.st6{fill:#CFDBE6;}
	.st7{fill:none;}
</style>
	<title>Photoshop_1</title>
	<path class="st0" d="M23.1,9.1H73c8,0,14.4,6.3,14.4,14.1v46.9C87.4,78,81,84.4,73,84.4H23.1c-8,0-14.4-6.3-14.4-14.1V23.3
	C8.7,15.5,15.1,9.1,23.1,9.1z"/>
	<path class="st1" d="M23.8,12.3h48.6c6.5,0,11.8,5.2,11.8,11.6v45.7c0,6.4-5.3,11.6-11.8,11.6H23.8C17.3,81.1,12,76,12,69.6V23.9
	C12,17.5,17.3,12.3,23.8,12.3z"/>
	<g class="st2">
	<path class="st3" d="M28.1,27.4c0-0.3,0.5-0.4,0.8-0.4c2.1-0.1,5.2-0.1,8.4-0.1c9,0,12.6,4.9,12.6,11.2c0,8.2-6,11.7-13.5,11.7
		h-2.5v12.3c0,0.2-0.1,0.4-0.3,0.4c0,0-0.1,0-0.1,0h-5.2c-0.2,0-0.4-0.1-0.4-0.3c0,0,0-0.1,0-0.1L28.1,27.4z M33.8,44.5h2.6
		c3.8,0,7.5-1.3,7.5-6.4c0-4.1-2.6-6.2-7-6.2c-1.1,0-2.1,0-3.1,0.1V44.5z M62.1,40.6c-2.6,0-3.4,1.3-3.4,2.3s0.7,1.9,4.1,3.7
		c5.1,2.4,6.8,4.8,6.8,8.2c0,5.1-3.9,8-9.4,8c-2.4,0.1-4.7-0.4-6.8-1.4C53,61.3,53,61.2,53,61v-4.8c0-0.3,0.1-0.4,0.4-0.3
		c1.9,1.3,4.2,1.9,6.6,1.9c2.6,0,3.7-1,3.7-2.4c0-1.2-0.8-2.2-4.1-3.9C55,49.4,53,47.2,53,43.5c0-4.1,3.3-7.6,9-7.6
		c2-0.1,4,0.2,5.9,0.9c0.2,0.1,0.4,0.4,0.3,0.6c0,0,0,0,0,0v4.4c0,0.3-0.1,0.4-0.5,0.3C66,41.2,64,40.7,62.1,40.6L62.1,40.6z"/>
		<g class="st4">
		<path class="st5" d="M28.1,27.4c0-0.3,0.5-0.4,0.8-0.4c2.1-0.1,5.2-0.1,8.4-0.1c9,0,12.6,4.9,12.6,11.2c0,8.2-6,11.7-13.5,11.7
			h-2.5v12.3c0,0.2-0.1,0.4-0.3,0.4c0,0-0.1,0-0.1,0h-5.2c-0.2,0-0.4-0.1-0.4-0.3c0,0,0-0.1,0-0.1L28.1,27.4z M33.8,44.5h2.6
			c3.8,0,7.5-1.3,7.5-6.4c0-4.1-2.6-6.2-7-6.2c-1.1,0-2.1,0-3.1,0.1V44.5z M62.1,40.6c-2.6,0-3.4,1.3-3.4,2.3s0.7,1.9,4.1,3.7
			c5.1,2.4,6.8,4.8,6.8,8.2c0,5.1-3.9,8-9.4,8c-2.4,0.1-4.7-0.4-6.8-1.4C53,61.3,53,61.2,53,61v-4.8c0-0.3,0.1-0.4,0.4-0.3
			c1.9,1.3,4.2,1.9,6.6,1.9c2.6,0,3.7-1,3.7-2.4c0-1.2-0.8-2.2-4.1-3.9C55,49.4,53,47.2,53,43.5c0-4.1,3.3-7.6,9-7.6
			c2-0.1,4,0.2,5.9,0.9c0.2,0.1,0.4,0.4,0.3,0.6c0,0,0,0,0,0v4.4c0,0.3-0.1,0.4-0.5,0.3C66,41.2,64,40.7,62.1,40.6L62.1,40.6z"/>
	</g>
</g>
	<g>
	<path class="st6" d="M30.8,53.1l-2.7,9.3c0,0.3-0.2,0.4-0.5,0.4h-4.6c-0.3,0-0.4-0.2-0.3-0.5l9.8-31.7c0.1-0.5,0.3-1,0.3-2.8
		c0-0.2,0.1-0.3,0.3-0.3h6.4c0.2,0,0.3,0.1,0.3,0.3l10.8,34.6c0.1,0.3,0,0.4-0.2,0.4h-5.1c-0.2,0-0.3-0.1-0.4-0.3l-2.8-9.3H30.8z
		 M40.6,47.6c-1-3.6-3.3-11.2-4.2-15h0c-0.8,3.6-2.6,9.9-4.1,15H40.6z"/>
		<path class="st6" d="M60.6,53.5c-0.2,0.5-0.2,1.1-0.2,1.7c0.1,0.6,0.3,1.2,0.7,1.7l4.8,0.3c6.6,0.3,9.5,3.2,9.5,7.5
		c0,5.4-4.8,9.8-12.1,9.8c-7.6,0-11.2-4.3-11.2-8.2c0-1.7,1.3-3.9,4.6-7c-0.7-1.2-1.1-2.5-1.1-4c0-1.2,0.3-2.5,0.9-3.6
		c-2-1.5-3.3-3.7-3.3-7c0-5.1,3.5-9.2,9.4-9.2c1.6,0,3.1,0.2,4.1,0.4c0.4,0.1,0.8,0.2,1.1,0.2h6.7c0.2,0,0.3,0.1,0.3,0.3v4.2
		c0,0.3-0.1,0.4-0.3,0.4c-1,0-2.7-0.1-3.8-0.3c0.6,0.9,1.1,2.2,1.1,4.2c0,5.9-4.2,8.7-9.2,8.7C61.9,53.7,61.2,53.6,60.6,53.5z
		 M64.6,62.4l-5-0.3c-1.4,1.1-2.4,2.9-2.4,3.7c0,2,2.3,4.1,6.3,4.1c4.7,0,6.7-2.1,6.7-4.3C70.2,63.2,67.8,62.5,64.6,62.4z
		 M62.5,40.1c-2.4,0-4,1.8-4,4.6c0,2.6,1.4,4.5,4,4.5c2.5,0,4-1.7,4-4.4C66.4,42.2,65.2,40.1,62.5,40.1z"/>
</g>
	<rect class="st7" width="96" height="93.6"/>
</svg>
